<svg id="验证icon" xmlns="http://www.w3.org/2000/svg" width="36" height="36" viewBox="0 0 36 36">
  <metadata><?xpacket begin="﻿" id="W5M0MpCehiHzreSzNTczkc9d"?>
<x:xmpmeta xmlns:x="adobe:ns:meta/" x:xmptk="Adobe XMP Core 5.6-c138 79.159824, 2016/09/14-01:09:01        ">
   <rdf:RDF xmlns:rdf="http://www.w3.org/1999/02/22-rdf-syntax-ns#">
      <rdf:Description rdf:about=""/>
   </rdf:RDF>
</x:xmpmeta>
                                                                                                    
                                                                                                    
                                                                                                    
                                                                                                    
                                                                                                    
                                                                                                    
                                                                                                    
                                                                                                    
                                                                                                    
                                                                                                    
                                                                                                    
                                                                                                    
                                                                                                    
                                                                                                    
                                                                                                    
                                                                                                    
                                                                                                    
                                                                                                    
                                                                                                    
                                                                                                    
                           
<?xpacket end="w"?></metadata>
<defs>
    <style>
      .cls-1, .cls-3 {
        fill: #fd9426;
      }

      .cls-1 {
        stroke: #fff;
        stroke-width: 2px;
      }

      .cls-2 {
        fill: #fff;
      }

      .cls-2, .cls-3 {
        fill-rule: evenodd;
      }
    </style>
  </defs>
  <circle id="椭圆_1" data-name="椭圆 1" class="cls-1" cx="18" cy="18" r="18"/>
  <path id="形状_3" data-name="形状 3" class="cls-2" d="M27,11l-0.894.04a13.122,13.122,0,0,1-4.08-.856,18.243,18.243,0,0,1-3.491-1.8L18,8l-0.535.379a18.278,18.278,0,0,1-3.491,1.8A13.073,13.073,0,0,1,9.9,11.04L9,11v9c0,4.432,5.853,9,9,9s9-4.568,9-9V11Z"/>
  <path id="形状_2" data-name="形状 2" class="cls-3" d="M23.121,15.265l-5.788,5.3-2.426-2.524a1.155,1.155,0,0,0-1.528-.089,0.935,0.935,0,0,0-.1,1.4l3.186,3.317a1.121,1.121,0,0,0,.778.333,0.186,0.186,0,0,0,.034,0,1.132,1.132,0,0,0,.765-0.289l6.6-6.049a0.939,0.939,0,0,0,0-1.405,1.159,1.159,0,0,0-1.532,0h0Z"/>
</svg>
