<?xml version="1.0" standalone="no"?><!DOCTYPE svg PUBLIC "-//W3C//DTD SVG 1.1//EN" "http://www.w3.org/Graphics/SVG/1.1/DTD/svg11.dtd"><svg t="1520422154004" class="icon" style="" viewBox="0 0 1024 1024" version="1.1" xmlns="http://www.w3.org/2000/svg" p-id="12617" xmlns:xlink="http://www.w3.org/1999/xlink" width="200" height="200"><defs><style type="text/css"></style></defs><path d="M908.608411 145.162124 272.47523 145.162124c-36.982286 0-67.070558 30.088272-67.070558 67.070558l0 44.969191-60.260455 0c-36.269042 0-65.784262 29.514197-65.784262 65.784262l0 456.640158c0 36.270065 29.514197 65.784262 65.784262 65.784262L769.843998 845.410556c36.271088 0 65.785286-29.514197 65.785286-65.784262l0-46.254463 72.978105 0c36.983309 0 67.070558-30.089295 67.070558-67.071581L975.677946 212.232682C975.67897 175.250396 945.590698 145.162124 908.608411 145.162124zM769.843998 817.400618 145.14524 817.400618c-20.828374 0-37.775348-16.945951-37.775348-37.774325l0-82.471316 181.381024-181.38921 193.922664 221.62561 141.43115-84.850503 175.336354 150.274562C792.520463 811.630195 781.894452 817.400618 769.843998 817.400618zM807.618323 772.945127l-180.613544-154.821111L488.336556 701.333136 290.119075 474.798726 107.369891 657.547911 107.369891 322.986135c0-20.828374 16.946974-37.774325 37.775348-37.774325L769.843998 285.21181c20.829398 0 37.774325 16.945951 37.774325 37.774325L807.618323 772.945127zM947.670056 666.300248c0 21.541619-17.520025 39.061644-39.061644 39.061644l-72.978105 0L835.630307 322.986135c0-36.270065-29.514197-65.784262-65.785286-65.784262L233.414609 257.201873l0-44.969191c0-21.540595 17.520025-39.060621 39.060621-39.060621l636.133182 0c21.541619 0 39.061644 17.520025 39.061644 39.060621L947.670056 666.300248 947.670056 666.300248zM639.558699 369.241622c-46.336328 0-84.028788 37.692461-84.028788 84.029812 0 46.335305 37.692461 84.027765 84.028788 84.027765 46.338375 0 84.030835-37.692461 84.030835-84.027765C723.589534 406.934083 685.897074 369.241622 639.558699 369.241622zM639.558699 509.292332c-30.894637 0-56.019875-25.133424-56.019875-56.019875 0-30.889521 25.125237-56.019875 56.019875-56.019875 30.895661 0 56.019875 25.131377 56.019875 56.019875C695.578574 484.159932 670.455383 509.292332 639.558699 509.292332z" p-id="12618" fill="#ffffff"></path></svg>